<?xml version="1.0" encoding="UTF-8" standalone="no"?>
<!-- Created with Inkscape (http://www.inkscape.org/) -->

<svg
   width="127"
   height="51"
   id="svg1341"
   version="1.1"
   xmlns="http://www.w3.org/2000/svg"
   xmlns:svg="http://www.w3.org/2000/svg"
   xmlns:rdf="http://www.w3.org/1999/02/22-rdf-syntax-ns#"
   xmlns:cc="http://creativecommons.org/ns#"
   xmlns:dc="http://purl.org/dc/elements/1.1/">
  <defs
     id="defs1343" />
  <metadata
     id="metadata1346">
    <rdf:RDF>
      <cc:Work
         rdf:about="">
        <dc:format>image/svg+xml</dc:format>
        <dc:type
           rdf:resource="http://purl.org/dc/dcmitype/StillImage" />
      </cc:Work>
    </rdf:RDF>
  </metadata>
  <g
     id="g1110"
     transform="matrix(0.96921974,0,0,0.96921974,-3.8252662,-0.20938204)">
    <path
       d="m 65.617836,41.134583 c 0,0 -0.0032,0 -0.0032,0 -0.30312,0 -0.570771,0.09997 -0.822296,0.303122 -0.187033,0.148335 -0.316021,0.348267 -0.419211,0.57077 0,0 0.0129,0 0.0129,0 0.10319,-0.222503 0.232178,-0.422435 0.415987,-0.57077 0.251525,-0.203156 0.519174,-0.299898 0.815847,-0.303122 z"
       id="path2577"
       style="fill:#bd0000;fill-opacity:1;fill-rule:evenodd;stroke:none;stroke-width:0.189107pt;stroke-linecap:butt;stroke-linejoin:miter" />
    <path
       style="fill:#bd0000;fill-opacity:1;fill-rule:evenodd;stroke:none;stroke-width:0.189107pt;stroke-linecap:butt;stroke-linejoin:miter"
       d="m 15.218761,2.2835692 c 4e-6,0 -11.2158866,48.9347328 -11.2158866,48.9347328 0.00322,0 0.00363,0 0.010078,0 0,0 51.8873356,0 51.8873356,0 2e-6,0 26.986654,0 26.986654,0 -3.215022,-0.280546 -5.753253,-1.409191 -7.265635,-3.466543 -0.280546,-0.380519 -0.512326,-0.790454 -0.715481,-1.219339 -0.128984,-0.316017 -0.250317,-0.634861 -0.372856,-0.95733 -0.322473,-1.025454 -0.451053,-2.163367 -0.39301,-3.375851 0.161236,-3.379483 1.746979,-7.399383 4.494418,-11.608898 2.918347,-4.473621 7.147937,-9.162403 12.384838,-13.513481 1.173785,-0.974504 2.387481,-1.936832 3.658012,-2.871994 1.570422,-1.155404 3.152945,-2.219476 4.736271,-3.214617 5.833471,-3.6726039 11.652431,-6.2424453 16.808711,-7.5477942 -4.92733,1.607506 -10.46292,4.3364847 -15.932,8.0516542 -0.1967,0.132857 -0.390994,0.268939 -0.584477,0.403086 -3.034436,2.102501 -5.783486,4.335441 -8.182657,6.590466 -7.719921,7.258791 -11.800364,14.780385 -9.946166,19.186928 0.132216,0.303119 0.289818,0.592538 0.473628,0.866637 1.992857,2.931248 6.931882,3.437926 13.191012,1.864276 0.425659,-0.10642 0.851318,-0.226936 1.289876,-0.3527 1.999311,-0.577224 4.121964,-1.356792 6.308304,-2.317748 0.52562,-0.23218 1.0569,-0.470807 1.5922,-0.725558 0.0548,-0.0258 0.10641,-0.05159 0.16123,-0.08062 6.90084,-3.428816 12.20426,-7.374148 13.35225,-9.744622 0.25153,-0.515623 0.31199,-0.955236 0.14108,-1.299953 -0.81907,-1.660715 -6.55056,-0.538766 -13.49333,2.468905 -0.55787,0.241849 -1.12219,0.490718 -1.69296,0.755787 0.46435,-0.431137 0.94766,-0.863894 1.44103,-1.289878 0.78683,-0.677831 1.60146,-1.340665 2.46891,-1.995276 1.35759,-1.028036 2.7301,-1.957391 4.08125,-2.781299 6.32685,-4.773187 9.52534,-9.28841 8.85783,-10.963957 -0.12576,-0.315701 -0.39341,-0.532883 -0.80617,-0.665095 -1.31891,-0.419528 -3.72614,0.08118 -6.65093,1.279801 -2.41207,0.989339 -5.18249,2.456651 -7.9912,4.282797 0,0 -0.38293,0.251928 -0.38293,0.251928 1e-5,0 -0.0705,0.04031 -0.0705,0.04031 0,3e-6 -1.35034,0.896868 -1.35034,0.896868 0,-2e-6 0.77594,-1.42088 0.77594,-1.42088 1.15122,-2.107341 3.02638,-4.306094 5.36105,-6.348614 1.71232,-1.493357 3.6685,-2.9004512 5.77422,-4.13164 0.7965,-0.4662868 1.59179,-0.8993664 2.38829,-1.2898762 0.81585,-0.3985789 1.6321,-0.7528142 2.4286,-1.0681879 2.31407,-0.9151456 4.52302,-1.4712148 6.44938,-1.6224247 -0.17542,0 -5.41143,0 -5.41143,0 0,0 -18.23967,0 -18.23967,0 0,0 -80.425882,0 -80.425882,0 0,0 -6.378846,0 -6.378846,0 z m 57.863097,0.070556 C 72.765843,7.1772919 73.701,14.241791 75.822849,22.08521 c 0.377285,1.395649 0.788031,2.815964 1.23949,4.252567 0.280552,0.887108 0.569967,1.760361 0.866636,2.620062 -0.17413,0.256043 -0.349477,0.51047 -0.513936,0.765865 -2.64747,4.057306 -4.194923,7.891632 -4.585109,11.225965 C 71.710957,37.202574 70.86851,33.098267 70.391255,28.746219 70.255818,27.499228 70.149805,26.26619 70.078861,25.0479 69.556459,16.198375 70.711706,8.1763025 73.081858,2.3541252 Z M 20.247269,8.6321941 c 0.06039,-0.00142 0.119921,0 0.181388,0 0,-3.8e-6 11.921289,0 11.921289,0 1.019005,-3.8e-6 1.807038,0.190981 2.368134,0.5743974 0.55787,0.3856762 0.767077,0.8845345 0.634861,1.4914205 3e-6,4e-6 -1.42088,6.419155 -1.42088,6.419155 0,5e-6 -4.202178,0 -4.202178,0 4e-6,5e-6 1.380572,-6.247843 1.380572,-6.247843 -3e-6,0 -10.520562,0 -10.520562,0 -3e-6,0 -3.799093,17.171494 -3.799093,17.171494 4e-6,0 -1.370495,6.217613 -1.370495,6.217613 0,6e-6 10.510487,0 10.510487,0 0,6e-6 0.01008,-0.04031 0.01008,-0.04031 0,4e-6 2.106127,-9.512847 2.106127,-9.512847 0,-3e-6 -4.937811,0 -4.937811,0 0,-3e-6 0.473626,-2.146436 0.473626,-2.146436 -2e-6,-4e-6 9.139991,0 9.139991,0 0,-4e-6 -2.620064,11.870905 -2.620064,11.870905 -0.03547,0.168971 -0.09755,0.322064 -0.181389,0.473624 -0.216053,0.393413 -0.59294,0.730396 -1.118565,1.007719 -0.728776,0.383742 -1.601061,0.574398 -2.620064,0.574398 0,4e-6 -11.911211,0 -11.911211,0 -1.019008,4e-6 -1.80704,-0.19066 -2.368135,-0.574398 -0.557868,-0.383736 -0.770299,-0.873812 -0.634861,-1.481343 2e-6,-4e-6 5.250203,-23.731731 5.250203,-23.731731 0.135435,-0.606884 0.557875,-1.1057481 1.289878,-1.4914205 0.0258,-0.013863 0.05482,-0.01701 0.08062,-0.030231 0.668119,-0.3346626 1.452222,-0.5227731 2.358058,-0.5441667 z m 18.68307,0 c -4e-6,-3.8e-6 15.004899,0 15.004899,0 1.006108,-3.8e-6 1.796961,0.190981 2.358057,0.5743974 0.564328,0.3856762 0.78038,0.8845345 0.64494,1.4914205 4e-6,4e-6 -2.801452,12.656923 -2.801452,12.656923 -0.132208,0.603013 -0.564725,1.095024 -1.299954,1.481343 -0.735229,0.387605 -1.600658,0.584475 -2.609987,0.584475 -3e-6,0 -10.903494,0 -10.903494,0 0,0 -2.106128,9.502769 -2.106128,9.502769 0,4e-6 -0.342624,1.561962 -0.342624,1.561962 2e-6,4e-6 -4.111485,0 -4.111485,0 0,4e-6 0.312391,-1.410803 0.312391,-1.410803 0,4e-6 5.854837,-26.4424869 5.854837,-26.4424869 z m 20.728732,0 c -2e-6,-3.8e-6 4.111485,0 4.111485,0 4e-6,-3.8e-6 -4.655652,21.0310459 -4.655652,21.0310459 4e-6,4e-6 -1.017793,4.595191 -1.017793,4.595191 0,6e-6 9.835316,0 9.835316,0 0.103192,0.754261 0.223712,1.495046 0.3527,2.227053 -4e-6,4e-6 -14.793284,0 -14.793284,0 4e-6,4e-6 1.168952,-5.280437 1.168952,-5.280437 4e-6,0 4.998276,-22.5728529 4.998276,-22.5728529 z m -17.11103,2.2371299 c 4e-6,0 -2.730914,12.314297 -2.730914,12.314297 0,-4e-6 10.248481,0 10.248481,0 -2e-6,-4e-6 2.720834,-12.314297 2.720834,-12.314297 4e-6,0 -10.238401,0 -10.238401,0 z M 33.932061,38.4203 c 0.04022,-0.0013 0.08042,0 0.120928,0 0.477255,4e-6 0.894045,0.08384 1.229413,0.241851 0.357942,0.167683 0.613902,0.416792 0.755789,0.745711 0.138662,0.319249 0.174939,0.681619 0.100769,1.078258 0,2e-6 -0.03023,0.151159 -0.03023,0.151159 2e-6,-6e-6 -1.179029,0 -1.179029,0 -4e-6,-6e-6 0.01008,-0.141083 0.01008,-0.141083 0.03048,-0.277123 -0.0039,-0.495043 -0.110851,-0.644936 -0.01394,-0.0188 -0.03414,-0.04361 -0.05039,-0.06046 -0.0266,-0.02716 -0.06656,-0.05821 -0.100769,-0.08062 -0.164973,-0.103914 -0.423038,-0.161236 -0.755789,-0.161236 -0.441782,4e-6 -0.77191,0.07699 -0.997638,0.231777 -0.219281,0.151562 -0.357942,0.320858 -0.403087,0.524012 -0.04515,0.20638 0.02902,0.31481 0.08062,0.372854 0.0015,0.0015 0.0081,0.0083 0.01008,0.01008 0.06534,0.05568 0.292239,0.186225 0.99764,0.352699 0.638486,0.154786 1.061329,0.293852 1.299956,0.413165 0.36117,0.183805 0.613499,0.42203 0.745713,0.715479 0.132207,0.290226 0.161233,0.630023 0.08062,0.99764 -0.08062,0.35794 -0.263216,0.688069 -0.534091,0.997641 -0.267647,0.309568 -0.608257,0.554645 -1.017795,0.725553 -0.406315,0.167685 -0.852123,0.262006 -1.310031,0.262006 -0.580445,-2e-6 -1.04641,-0.08787 -1.410802,-0.262006 -0.380516,-0.18058 -0.655018,-0.465563 -0.816251,-0.836403 -0.154786,-0.361168 -0.18784,-0.771107 -0.100773,-1.219336 0,-6e-6 0.03023,-0.141083 0.03023,-0.141083 0,0 1.158874,0 1.158874,0 0,0 -0.01008,0.141083 -0.01008,0.141083 -0.02903,0.267647 -3.79e-4,0.483702 0.07054,0.644936 0.06772,0.15479 0.196707,0.282967 0.403086,0.382934 0.219277,0.106411 0.493376,0.161233 0.806172,0.161233 0.28055,-2e-6 0.536915,-0.04716 0.765867,-0.131 0.225727,-0.08062 0.405101,-0.187034 0.534089,-0.322471 0.12576,-0.135442 0.199529,-0.278532 0.231775,-0.43332 0.03225,-0.138661 0.02459,-0.255956 -0.03023,-0.3527 -0.06127,-0.103184 -0.182598,-0.194691 -0.372853,-0.272083 0,-2e-6 -0.987566,-0.292238 -0.987566,-0.292238 -0.551421,-0.138659 -0.922663,-0.270873 -1.138718,-0.403086 -0.29345,-0.174131 -0.505068,-0.397444 -0.614709,-0.665093 -0.109638,-0.26443 -0.121327,-0.55747 -0.05038,-0.876715 0.07417,-0.341817 0.23903,-0.667107 0.49378,-0.95733 0.257979,-0.29345 0.590925,-0.523609 0.987564,-0.67517 0.350685,-0.131505 0.719733,-0.208625 1.108486,-0.221698 z m 10.581028,0.02016 c 0.06378,-0.005 0.123745,0 0.191466,0 2e-6,0 0.725556,0.08062 0.725556,0.08062 -2e-6,0 0.241851,0.02016 0.241851,0.02016 4e-6,2e-6 -0.3527,0.896867 -0.3527,0.896867 -2e-6,4e-6 -0.07054,0.141081 -0.07054,0.141081 0,-4e-6 -0.554242,-0.05038 -0.554242,-0.05038 -0.163655,0 -0.283874,0.02525 -0.362779,0.08062 -0.0052,0.004 -0.01532,0.01592 -0.02015,0.02015 -0.01057,0.0093 -0.02835,0.02545 -0.04031,0.04031 -0.04852,0.06364 -0.107625,0.177356 -0.151157,0.382932 -4e-6,0 -0.02096,0.08707 -0.04031,0.161235 0.254751,2e-6 0.866634,0 0.866634,0 0,2e-6 -0.221696,0.997638 -0.221696,0.997638 0,-2e-6 -0.633653,0 -0.846481,0 -0.0645,0.29022 -0.85656,3.839401 -0.85656,3.839401 -4e-6,-3e-6 -1.168952,0 -1.168952,0 -4e-6,-3e-6 0.759819,-3.410516 0.85656,-3.839401 -0.196711,-2e-6 -0.675171,0 -0.675171,0 0,-2e-6 0.221698,-0.997638 0.221698,-0.997638 2e-6,2e-6 0.481285,0 0.665091,0 0.03225,-0.138661 0.08062,-0.312394 0.08062,-0.312394 0.07095,-0.322469 0.145111,-0.554244 0.241851,-0.715478 0.132218,-0.222502 0.318845,-0.408731 0.554248,-0.544167 0.193885,-0.112661 0.439102,-0.180019 0.715478,-0.201543 z m 2.791375,0.05039 c -4e-6,-2e-6 -0.30554,1.374929 -0.382932,1.723196 0.225725,2e-6 0.755787,0 0.755787,0 0,2e-6 -0.221696,0.997638 -0.221696,0.997638 -4e-6,-2e-6 -0.555859,0 -0.755789,0 -0.06127,0.277319 -0.544167,2.428599 -0.544167,2.428599 4e-6,-4e-6 -0.04031,0.258379 -0.04031,0.332546 5.3e-5,0.0025 -1.89e-4,0.0083 0,0.01008 1.59e-4,7.56e-4 -1.89e-4,0.0095 0,0.01008 3.78e-4,5.67e-4 0.0097,-3.78e-4 0.01008,0 0,-4e-6 0.120928,0.01008 0.120928,0.01008 0,0 0.554244,-0.04031 0.554244,-0.04031 0,0 -0.06046,0.896867 -0.06046,0.896867 4e-6,0 0.01008,0.161234 0.01008,0.161234 -3e-6,-3e-6 -0.796098,0.0907 -0.796098,0.0907 -0.316017,-4e-6 -0.547796,-0.05159 -0.715479,-0.161233 -0.177354,-0.116096 -0.280548,-0.270071 -0.322469,-0.46355 -0.0064,-0.03547 -0.02016,-0.08707 -0.02016,-0.161234 0,-0.145114 0.02741,-0.390592 0.120926,-0.816251 4e-6,4e-6 0.423643,-1.897734 0.513936,-2.297597 -0.151556,-2e-6 -0.554244,0 -0.554244,0 4e-6,-2e-6 0.221696,-0.997638 0.221696,-0.997638 -4e-6,2e-6 0.393009,0 0.554246,0 0.05159,-0.232176 0.231773,-1.027872 0.231773,-1.027872 0,4e-6 0.937179,-0.493781 0.937179,-0.493781 -2e-6,4e-6 0.382932,-0.201543 0.382932,-0.201543 z M 10.1701,38.53115 c 4e-6,0 4.534727,0 4.534727,0 0,0 -0.251929,1.128643 -0.251929,1.128643 0,4e-6 -3.025166,0 -3.315389,0 -0.05159,0.228958 -0.258378,1.156053 -0.332546,1.491421 0.419212,0 2.871993,0 2.871993,0 0,0 -0.251931,1.12864 -0.251931,1.12864 -2e-6,0 -2.581768,0 -2.871992,0 -0.06127,0.28055 -0.614708,2.771223 -0.614708,2.771223 3.8e-6,-3e-6 -1.2193355,0 -1.2193355,0 1.9e-6,-3e-6 1.4511105,-6.519927 1.4511105,-6.519927 z m 6.076531,1.592194 c 0.04551,-0.0056 0.09523,0 0.141082,0 0.290222,0 0.558276,0.08828 0.816252,0.272081 0,4e-6 0.161232,0.110849 0.161232,0.110849 0,0 -0.624783,1.027873 -0.624783,1.027873 0,-4e-6 -0.17131,-0.120927 -0.17131,-0.120927 -0.125764,-0.08061 -0.2612,-0.120926 -0.403087,-0.120926 -0.12254,4e-6 -0.236613,0.04353 -0.352702,0.120926 -0.122535,0.08062 -0.224924,0.187434 -0.302314,0.332547 -0.135438,0.248305 -0.234598,0.52643 -0.302316,0.826327 0,2e-6 -0.544167,2.478983 -0.544167,2.478983 0,-3e-6 -1.168952,0 -1.168952,0 0,-3e-6 1.078259,-4.837039 1.078259,-4.837039 3e-6,2e-6 1.088333,0 1.088333,0 0,2e-6 -0.03749,0.146724 -0.05039,0.201542 0.0516,-0.03869 0.106011,-0.0919 0.151159,-0.120926 0.156196,-0.09321 0.321173,-0.151352 0.483701,-0.17131 z m 3.466547,0 c 0.07038,-0.0053 0.139673,0 0.211622,0 0.657839,0 1.155648,0.230563 1.481342,0.685246 0.203154,0.293445 0.312395,0.656224 0.312395,1.088334 0,0.238624 -0.02943,0.495394 -0.09069,0.775942 0,0 -0.0907,0.352701 -0.0907,0.352701 0,-3e-6 -2.956236,0 -3.285156,0 -0.0064,0.06772 -0.01008,0.140274 -0.01008,0.201543 0,0.251529 0.05159,0.449441 0.161234,0.594554 0.0521,0.07094 0.1125,0.134832 0.18139,0.181388 0.129875,0.0847 0.297529,0.131004 0.493781,0.131004 0.23863,-4e-6 0.448231,-0.0657 0.644938,-0.191467 0.187036,-0.119313 0.366005,-0.309973 0.524014,-0.574398 0,-5e-6 1.249568,0 1.249568,0 0,-5e-6 -0.110847,0.241851 -0.110847,0.241851 -0.238629,0.483708 -0.571578,0.860993 -0.987564,1.128644 -0.415985,0.267649 -0.912992,0.413161 -1.461191,0.413161 -0.712657,-2e-6 -1.243119,-0.230563 -1.572039,-0.685245 -0.325691,-0.445012 -0.395829,-1.06012 -0.221695,-1.834046 0.174135,-0.786824 0.521595,-1.415638 1.02787,-1.854198 0.453777,-0.39346 0.968691,-0.611701 1.541806,-0.655014 z m 5.250207,0 c 0.07038,-0.0053 0.139668,0 0.211618,0 0.657841,0 1.155652,0.230563 1.481345,0.685246 0.203156,0.293445 0.312392,0.656224 0.312392,1.088334 0,0.2354 -0.02942,0.488541 -0.0907,0.765864 0,4e-6 -0.09069,0.362779 -0.09069,0.362779 0,-3e-6 -2.95624,0 -3.285158,0 -0.0032,0.04514 -0.0068,0.08586 -0.01008,0.131004 -0.0024,0.01693 0.0011,0.04263 0,0.06046 -9.5e-5,0.0029 0,0.0073 0,0.01008 0,0.04837 0.0068,0.09593 0.01008,0.141081 0.01611,0.183805 0.06409,0.337384 0.151157,0.453473 0.01658,0.02257 0.03216,0.05044 0.05039,0.07054 0.147695,0.158006 0.356732,0.241851 0.624785,0.241851 0.23863,-4e-6 0.451457,-0.06571 0.64494,-0.191467 0.187034,-0.119314 0.366002,-0.309973 0.524012,-0.574398 0,-5e-6 1.259645,0 1.259645,0 -2e-6,-5e-6 -0.120926,0.241851 -0.120926,0.241851 -0.238627,0.483707 -0.571576,0.860993 -0.987562,1.128644 -0.415986,0.267649 -0.912992,0.413161 -1.461188,0.413161 -0.712656,-2e-6 -1.24312,-0.230563 -1.572039,-0.685245 -0.212831,-0.290226 -0.312394,-0.659853 -0.312394,-1.098411 0,-0.06772 0.0036,-0.140678 0.01008,-0.21162 0.0129,-0.167683 0.0387,-0.336981 0.08062,-0.524015 0.174137,-0.783599 0.511517,-1.415638 1.017793,-1.854198 0.453775,-0.39346 0.97877,-0.611701 1.551885,-0.655014 z m 14.299498,0 c 0.07202,-0.0055 0.13826,0 0.21162,0 0.670738,0 1.186288,0.226936 1.521654,0.675169 0.332147,0.448227 0.412762,1.052861 0.241851,1.813888 -0.132211,0.593347 -0.323273,1.072615 -0.584473,1.420884 -0.261206,0.348268 -0.594152,0.632844 -0.987566,0.826325 -0.390181,0.193483 -0.803352,0.292237 -1.219336,0.292237 -0.683635,-2e-6 -1.192734,-0.233789 -1.521653,-0.685245 -0.212833,-0.286996 -0.322469,-0.656628 -0.322469,-1.098411 3e-6,-0.238628 0.0262,-0.49217 0.0907,-0.775942 0.193485,-0.864221 0.588505,-1.522459 1.168952,-1.944893 0.42606,-0.307553 0.896583,-0.48526 1.400725,-0.524012 z m 17.705585,0 c 0.08502,-0.0052 0.163753,0 0.251928,0 0.406313,0 0.725556,0.04111 0.967409,0.141078 0.257976,0.103193 0.440977,0.249108 0.544167,0.423242 0.09997,0.164453 0.151159,0.366406 0.151159,0.614705 2e-6,4e-6 -0.12093,0.735634 -0.12093,0.735634 5e-6,0 -0.221694,0.997642 -0.221694,0.997642 -0.190263,0.851314 -0.232178,1.170563 -0.241855,1.289878 -0.0097,0.161236 0.0052,0.318437 0.05039,0.463548 3e-6,-3e-6 0.08062,0.262006 0.08062,0.262006 4e-6,-3e-6 -1.189105,0 -1.189105,0 -4e-6,-3e-6 -0.05039,-0.151159 -0.05039,-0.151159 -0.01935,-0.07094 -0.01371,-0.161232 -0.02015,-0.24185 -0.225727,0.138662 -0.45186,0.261603 -0.655015,0.332546 -0.299894,0.103194 -0.611079,0.161233 -0.927099,0.161233 -0.548195,-2e-6 -0.954106,-0.142689 -1.199185,-0.423241 -0.18703,-0.206378 -0.272081,-0.458711 -0.272081,-0.745709 -4e-6,-0.109639 0.0145,-0.223311 0.04031,-0.342622 0.05482,-0.245077 0.154383,-0.472017 0.312394,-0.675173 0.154786,-0.199935 0.337788,-0.364388 0.544166,-0.483701 0.199936,-0.119312 0.42284,-0.203962 0.655018,-0.262008 -4e-6,0 0.715479,-0.120927 0.715479,-0.120927 0.551424,-0.0645 0.962972,-0.144706 1.259645,-0.231773 0.0064,-0.03225 0.02015,-0.07054 0.02015,-0.07054 0.04676,-0.207484 0.04091,-0.363441 -0.01008,-0.443395 -0.0037,-0.0052 -0.01592,-0.01572 -0.02015,-0.02016 -0.01089,-0.01161 -0.02761,-0.02984 -0.04031,-0.04031 -0.121284,-0.09598 -0.328112,-0.14108 -0.604628,-0.14108 -0.312796,0 -0.544167,0.05119 -0.705403,0.151155 -0.158009,0.09997 -0.304332,0.282969 -0.433318,0.544167 -2e-6,-2e-6 -1.219338,0 -1.219338,0 4e-6,-2e-6 0.110849,-0.241851 0.110849,-0.241851 0.145108,-0.335372 0.318036,-0.613497 0.534091,-0.826327 0.216055,-0.212835 0.507889,-0.377692 0.846481,-0.49378 0.259485,-0.08566 0.542832,-0.142499 0.846483,-0.161234 z m 5.109125,0 c 0.04547,-0.0056 0.09523,0 0.141079,0 0.293443,0 0.568352,0.08828 0.826328,0.272081 3e-6,4e-6 0.151157,0.110849 0.151157,0.110849 2e-6,0 -0.624783,1.027873 -0.624783,1.027873 2e-6,-4e-6 -0.171312,-0.120927 -0.171312,-0.120927 -0.125762,-0.08061 -0.254351,-0.120926 -0.39301,-0.120926 -0.122543,4e-6 -0.243464,0.04353 -0.362781,0.120926 -0.122536,0.08062 -0.211618,0.187434 -0.292235,0.332547 -0.132216,0.248305 -0.234598,0.52643 -0.302316,0.826327 -3e-6,2e-6 -0.554244,2.478983 -0.554244,2.478983 4e-6,-3e-6 -1.16895,0 -1.16895,0 0,-3e-6 1.078254,-4.837039 1.078254,-4.837039 -2e-6,2e-6 1.088334,0 1.088334,0 0,2e-6 -0.02741,0.146724 -0.04031,0.201542 0.05159,-0.03869 0.102785,-0.0919 0.151157,-0.120926 0.153674,-0.09321 0.311215,-0.151352 0.473628,-0.17131 z m 3.456465,0 c 0.07032,-0.0053 0.139673,0 0.211622,0 0.657839,0 1.158873,0.230563 1.481346,0.685246 0.206382,0.293445 0.312391,0.656224 0.312391,1.088334 -4e-6,0.238624 -0.0395,0.495394 -0.100773,0.775942 0,0 -0.08062,0.352701 -0.08062,0.352701 -2e-6,-3e-6 -2.959465,0 -3.285156,0 -0.0064,0.06772 -0.02016,0.140274 -0.02016,0.201543 0,0.251529 0.05482,0.449441 0.161236,0.594554 0.01659,0.02257 0.04217,0.05044 0.06046,0.07054 0.01059,0.01129 0.02914,0.02983 0.04031,0.04031 0.144166,0.131055 0.340356,0.201545 0.584473,0.201545 0.238632,-4e-6 0.448234,-0.0657 0.64494,-0.191467 0.187036,-0.119313 0.362781,-0.309973 0.524013,-0.574398 -3e-6,-5e-6 1.259646,0 1.259646,0 0,-5e-6 -0.120926,0.241851 -0.120926,0.241851 -0.238629,0.483708 -0.574801,0.860993 -0.987563,1.128644 -0.419206,0.267649 -0.909765,0.413161 -1.46119,0.413161 -0.712651,-2e-6 -1.233042,-0.230563 -1.561959,-0.685245 -0.325699,-0.445012 -0.402685,-1.06012 -0.231776,-1.834046 0.174132,-0.786824 0.511518,-1.415638 1.017795,-1.854198 0.456646,-0.39346 0.979295,-0.611701 1.551882,-0.655014 z m -17.645121,0.09069 c 4e-6,2e-6 1.199186,0 1.199186,0 4e-6,2e-6 0.147931,2.870381 0.151155,2.912299 0.04837,-0.102791 0.0859,-0.189272 0.0907,-0.201541 2e-6,2e-6 1.320107,-2.710758 1.320107,-2.710758 4e-6,2e-6 1.098411,0 1.098411,0 -2e-6,2e-6 0.100771,2.835712 0.100771,2.851836 0.03225,-0.05804 1.501499,-2.851836 1.501499,-2.851836 -4e-6,2e-6 1.189106,0 1.189106,0 -2e-6,2e-6 -2.620064,4.837039 -2.620064,4.837039 4e-6,-3e-6 -1.078256,0 -1.078256,0 0,-3e-6 -0.104399,-2.622884 -0.110849,-2.771223 -0.445012,0.912593 -1.350343,2.771223 -1.350343,2.771223 0,-3e-6 -1.108485,0 -1.108485,0 0,-3e-6 -0.382936,-4.837039 -0.382936,-4.837039 z m -28.155604,0.917021 c -0.277785,0.01172 -0.530057,0.111855 -0.765862,0.302314 -0.187031,0.148338 -0.313201,0.351898 -0.413167,0.5744 0,3e-6 1.985202,0 1.985202,0 0.0032,-0.03547 0.01008,-0.0786 0.01008,-0.110849 -3e-6,-0.183803 -0.03265,-0.326499 -0.09069,-0.423241 -0.141884,-0.23218 -0.352297,-0.342624 -0.665094,-0.342624 -0.01874,0 -0.04194,-7.56e-4 -0.06046,0 z m 5.250203,0 c -0.277783,0.01172 -0.530058,0.111855 -0.765865,0.302314 -0.187034,0.148338 -0.309971,0.351898 -0.413161,0.5744 0,3e-6 1.9852,0 1.9852,0 0.0032,-0.03547 0.01008,-0.0786 0.01008,-0.110849 -2e-6,-0.183803 -0.02942,-0.326499 -0.0907,-0.423241 -0.02817,-0.04716 -0.06627,-0.09406 -0.100771,-0.131002 -0.134643,-0.139129 -0.31995,-0.211622 -0.56432,-0.211622 -0.01874,0 -0.04194,-7.56e-4 -0.06047,0 z m 40.610987,0 c -0.285657,0.0088 -0.552428,0.105511 -0.796097,0.302314 -0.183808,0.148338 -0.309974,0.351898 -0.413164,0.5744 3e-6,3e-6 1.975126,0 1.975126,0 0.0032,-0.03547 0.01008,-0.0786 0.01008,-0.110849 -2e-6,-0.183803 -0.02943,-0.326499 -0.0907,-0.423241 -0.138661,-0.228955 -0.352299,-0.339398 -0.665094,-0.342624 -0.0093,10e-5 -0.01093,-1.89e-4 -0.02015,0 z m -26.402179,0.02015 c -0.266571,0.03166 -0.514439,0.153273 -0.745711,0.362777 -0.277322,0.25153 -0.478463,0.646552 -0.59455,1.168952 -0.04837,0.219279 -0.07054,0.406715 -0.07054,0.574398 4e-6,0.228952 0.04393,0.40873 0.131004,0.544166 0.02318,0.03477 0.05393,0.0715 0.08062,0.100774 0.143351,0.152208 0.34353,0.231775 0.594552,0.231775 0.325692,-4e-6 0.612692,-0.121329 0.886789,-0.372857 0.27733,-0.254753 0.47524,-0.653807 0.594553,-1.189105 0.109644,-0.490156 0.09432,-0.856155 -0.06046,-1.088333 -0.148336,-0.22573 -0.365196,-0.332547 -0.665092,-0.332547 -0.05089,0 -0.101796,-0.0059 -0.151159,0 z m 18.209442,1.763504 c -0.274094,0.07416 -0.581253,0.136645 -0.987563,0.191468 -0.303117,0.04515 -0.519176,0.09271 -0.64494,0.141079 -0.109636,0.04514 -0.197915,0.107623 -0.272083,0.191467 -0.07095,0.08061 -0.118506,0.165264 -0.141078,0.262006 -0.0064,0.0387 -0.01008,0.0786 -0.01008,0.110849 0,0.0026 -5.9e-5,0.0075 0,0.01008 3.78e-4,0.0077 -7.56e-4,0.02282 0,0.03023 0.002,0.01464 0.0061,0.03676 0.01008,0.05039 0.0015,0.0045 0.0084,0.01577 0.01008,0.02015 0.0035,0.0087 0.0057,0.02196 0.01008,0.03023 0.0046,0.0082 0.01473,0.02241 0.02016,0.03023 0.0084,0.01161 0.01995,0.02943 0.03023,0.04031 0.08062,0.09029 0.241448,0.131004 0.473626,0.131004 0.254755,2e-6 0.499829,-0.04837 0.725556,-0.161235 0.222507,-0.109638 0.401877,-0.273293 0.534089,-0.46355 0.09675,-0.135439 0.174136,-0.343834 0.241853,-0.614706 z"
       id="path2579" />
    <path
       d="m 65.6275,41.134583 c -0.0032,0 -0.0064,0 -0.0097,0 0.312796,0.0032 0.519176,0.109641 0.657837,0.338593 0.06127,0.09674 0.09352,0.241852 0.09352,0.42566 0,0.03225 -0.0064,0.07417 -0.0097,0.109639 0,0 0.0129,0 0.0129,0 0,-0.03547 0.0064,-0.07739 0.0064,-0.109639 0,-0.183808 -0.02902,-0.328919 -0.09029,-0.42566 -0.138661,-0.232178 -0.348267,-0.338593 -0.661061,-0.338593 z"
       id="path2583"
       style="fill:#bd0000;fill-opacity:1;fill-rule:evenodd;stroke:none;stroke-width:0.189107pt;stroke-linecap:butt;stroke-linejoin:miter" />
    <path
       style="fill:#bd0000;fill-opacity:0;fill-rule:evenodd;stroke:#bd0000;stroke-width:1.61235;stroke-linecap:butt;stroke-linejoin:miter;stroke-miterlimit:4;stroke-opacity:1"
       id="path2647"
       d="m 73.849116,46.147515 c 0.130902,0.336539 0.261809,0.672527 0.398165,1.001151 0.209996,0.446439 0.452715,0.873788 0.744522,1.272776 1.576315,2.142745 4.216228,3.315982 7.567932,3.608061 0,0 3.605336,0 3.605336,0 1.139958,-0.08891 2.334464,-0.254719 3.572606,-0.496895 2.135383,-0.41753 4.398945,-1.058962 6.749774,-1.916116 1.780849,-0.649346 3.610789,-1.417591 5.467999,-2.310468 4.04441,-1.938753 8.22245,-4.439304 12.32141,-7.456934 1.34995,-0.992966 2.64537,-2.011839 3.88896,-3.047894 1.13996,-0.948515 2.23356,-1.911762 3.27807,-2.885635 2.91536,-2.809542 5.1162,-5.662993 6.36252,-8.168458 1.29813,-2.609091 1.55722,-4.839926 0.49362,-6.245246 -0.6518,-0.862604 -1.74267,-1.324863 -3.14717,-1.433677 6.32705,-4.747477 10.01421,-10.5064697 8.69154,-14.137432 -0.42,-1.1587911 -1.34452,-2.0232938 -2.66992,-2.5013752 -0.58907,-0.2118944 -1.25178,-0.3460847 -1.97449,-0.4071663 0,0 -1.9472,0 -1.9472,0 -2.719,0.1960851 -6.67295,1.1696836 -10.02738,2.8136287" />
  </g>
</svg>
